<?xml version="1.0" encoding="utf-8"?>
<!-- Generator: Adobe Illustrator 22.0.1, SVG Export Plug-In . SVG Version: 6.00 Build 0)  -->
<svg version="1.1" id="レイヤー_1" xmlns="http://www.w3.org/2000/svg" xmlns:xlink="http://www.w3.org/1999/xlink" x="0px"
	 y="0px" viewBox="0 0 140 24" style="enable-background:new 0 0 140 24;" xml:space="preserve">
<style type="text/css">
	.st0{fill:#FFFFFF;}
</style>
<g>
	<path class="st0" d="M119.4,0c-1.4,0-2.2,0.8-2.2,1.4v20.9c0,0.6,0.8,1.4,2.2,1.4c1.4,0,2.2-0.8,2.2-1.4V1.4
		C121.6,0.8,120.9,0,119.4,0z"/>
	<path class="st0" d="M138.1,18.9c-1.6,1.5-3.9,1.7-5.4,1.6c-2.4-0.1-4.4-1.7-4.3-3.8c1.3,0.9,3.1,1.3,4.4,1.3c4,0,7.2-2,7.2-5.4
		c0-2.5-2.3-5.4-7.2-5.4c-6.2,0-8.9,4.5-8.9,8.4c0,4.1,2.7,8.4,9,8.4c3.4,0,5.8-1.4,6.1-3.3C139.1,19.9,138.6,19.1,138.1,18.9z
		 M132.8,10.9c1.5,0,2.9,0.5,2.9,1.8c0,1.1-1.3,1.9-2.9,1.9c-1.7,0-3.3-0.9-3.8-1.4C129.7,11.6,131.3,10.9,132.8,10.9z"/>
	<g>
		<path class="st0" d="M9.2,7.2c-2,0-3.2,0.4-4.8,1.7V8.6c0-0.6-0.8-1.4-2.2-1.4C0.8,7.2,0,8,0,8.6v13.8c0,0.6,0.8,1.4,2.2,1.4
			c1.4,0,2.2-0.8,2.2-1.4v-5.8c0-3.7,1.4-5.6,4.1-5.6c1.8,0,2.4,1.5,2.4,3v8.4c0,0.6,0.7,1.4,2.2,1.4c1.5,0,2.2-0.8,2.2-1.4V14
			C15.3,9.2,12.8,7.2,9.2,7.2z"/>
		<path class="st0" d="M43.3,7.2h-3.1V4c0-0.6-0.8-1.4-2.2-1.4c-1.4,0-2.2,0.8-2.2,1.4v11.8c0,2,0,6.6,4.8,7.8
			c0.4,0.1,0.8,0.1,1.1,0.1c1,0,1.6-0.3,2-1.2c0.5-0.8,0.3-1.7,0.2-2c-0.2,0-0.4,0-0.6,0c-1.5,0-2.3-0.5-2.8-1.4
			c-0.4-0.9-0.4-2-0.4-3.4v-5.2h2.7c1.5,0,2.4-1.2,2.4-2.4C45.4,7.5,45,7.2,43.3,7.2z"/>
		<path class="st0" d="M94.4,7.2C92,7.2,88,8.7,88,14.9v7.4c0,0.6,0.8,1.4,2.2,1.4c1.4,0,2.2-0.8,2.2-1.4v-6.6
			c0-3.9,0.8-5.5,4.9-5.5c0.1-0.3,0.2-1.1-0.2-1.9C96.4,7.3,95.4,7.2,94.4,7.2z"/>
		<path class="st0" d="M33.7,12.6c0-2.5-2.3-5.4-7.3-5.4c-6.2,0-8.9,4.5-8.9,8.4c0,4.1,2.7,8.4,9,8.4c3.4,0,5.8-1.4,6.1-3.3
			c0.2-0.8-0.4-1.6-0.8-1.8c-1.6,1.5-3.9,1.7-5.4,1.6C24,20.4,22,18.9,22,16.7c1.3,0.9,3.1,1.3,4.4,1.3C30.4,18,33.7,16,33.7,12.6z
			 M22.6,13.2c0.8-1.6,2.3-2.3,3.8-2.3c1.5,0,2.9,0.5,2.9,1.8c0,1.1-1.3,1.9-2.9,1.9C24.7,14.6,23.1,13.7,22.6,13.2z"/>
		<path class="st0" d="M60.6,7.2c-1.7,0-3,0.5-3.9,1.3c-1-0.8-2.3-1.3-3.9-1.3c-4,0-6,2.7-6,6.3v8.9c0,0.6,0.7,1.3,2.1,1.3
			c1.4,0,2.1-0.8,2.1-1.3v-9c0-1.5,0.6-2.5,1.8-2.5c1.2,0,1.8,1,1.8,2.5v0.1v8.9c0,0.6,0.7,1.3,2.1,1.3c0,0,0,0,0,0h0
			c1.4,0,2.1-0.8,2.1-1.3v-8.9v-0.1c0-1.5,0.6-2.5,1.8-2.5s1.8,1,1.8,2.5v9c0,0.6,0.7,1.3,2.1,1.3c1.4,0,2.1-0.8,2.1-1.3v-8.9
			C66.6,9.9,64.6,7.2,60.6,7.2z"/>
		<path class="st0" d="M84.7,17.2V15c0-5.4-3.9-7.8-7.5-7.8c-5,0-8.4,3.9-8.4,8.7c0,5.1,3.2,8.2,7.3,8.2c3,0,4.6-1.2,5.7-2.2
			c0.3,0.5,0.6,0.9,0.8,1.2c0.4,0.5,0.9,0.7,1.4,0.7c0.3,0,0.6-0.1,0.9-0.2c0.7-0.3,1.1-0.7,1.2-1.2c0.1-0.5,0-1-0.2-1.3
			C85.2,19.8,84.7,18.3,84.7,17.2z M80.3,15.4c-0.1,2.7-1.7,5-4.2,4.8c-2-0.2-3.2-2.3-2.8-5c0.4-2.7,2-4.5,4.1-4.3
			C79.5,11,80.4,12.8,80.3,15.4z"/>
		<path class="st0" d="M107.5,7.2c-1.5,0-2.9,0.3-4,1V1.4c0-0.6-0.7-1.4-2.2-1.4c-1.4,0-2.2,0.8-2.2,1.4v14.4c0,5.1,3.2,8.2,7.3,8.2
			c5.7,0,8.6-4.4,8.6-9C115,10,112,7.2,107.5,7.2z M110.6,15.4c-0.2,2.7-1.7,5-4.2,4.8c-2-0.2-3.2-2.3-2.8-5c0.4-2.7,2-4.5,4.2-4.3
			C109.7,11,110.7,12.8,110.6,15.4z"/>
	</g>
</g>
<g>
</g>
<g>
</g>
<g>
</g>
<g>
</g>
<g>
</g>
<g>
</g>
<g>
</g>
<g>
</g>
<g>
</g>
<g>
</g>
<g>
</g>
<g>
</g>
<g>
</g>
<g>
</g>
<g>
</g>
</svg>
